<?xml version="1.0" encoding="UTF-8"?>
<svg xmlns="http://www.w3.org/2000/svg" xmlns:xlink="http://www.w3.org/1999/xlink" width="810pt" height="1439.999935pt" viewBox="0 0 810 1439.999935" version="1.2">
<defs>
<clipPath id="clip1">
  <path d="M 329 255.269531 L 352 255.269531 L 352 277 L 329 277 Z M 329 255.269531 "/>
</clipPath>
<clipPath id="clip2">
  <path d="M 351 406 L 395 406 L 395 427.769531 L 351 427.769531 Z M 351 406 "/>
</clipPath>
<clipPath id="clip3">
  <path d="M 458 255.269531 L 481 255.269531 L 481 277 L 458 277 Z M 458 255.269531 "/>
</clipPath>
<clipPath id="clip4">
  <path d="M 415 406 L 459 406 L 459 427.769531 L 415 427.769531 Z M 415 406 "/>
</clipPath>
</defs>
<g id="surface1">
<rect x="0" y="0" width="810" height="1439.999935" style="fill:rgb(100%,100%,100%);fill-opacity:1;stroke:none;"/>
<rect x="0" y="0" width="810" height="1439.999935" style="fill:rgb(100%,100%,100%);fill-opacity:1;stroke:none;"/>
<rect x="0" y="0" width="810" height="1439.999935" style="fill:rgb(0%,0%,0%);fill-opacity:1;stroke:none;"/>
<g clip-path="url(#clip1)" clip-rule="nonzero">
<path style=" stroke:none;fill-rule:nonzero;fill:rgb(100%,100%,100%);fill-opacity:1;" d="M 329.78125 255.363281 L 329.78125 276.894531 L 351.296875 276.894531 L 351.296875 255.363281 L 329.78125 255.363281 "/>
</g>
<g clip-path="url(#clip2)" clip-rule="nonzero">
<path style=" stroke:none;fill-rule:nonzero;fill:rgb(100%,100%,100%);fill-opacity:1;" d="M 372.796875 427.671875 L 394.3125 427.671875 L 394.3125 406.140625 L 351.296875 406.140625 L 351.296875 427.671875 L 372.796875 427.671875 "/>
</g>
<g clip-path="url(#clip3)" clip-rule="nonzero">
<path style=" stroke:none;fill-rule:nonzero;fill:rgb(100%,100%,100%);fill-opacity:1;" d="M 480.363281 255.363281 L 458.847656 255.363281 L 458.847656 276.894531 L 480.363281 276.894531 L 480.363281 255.363281 "/>
</g>
<path style=" stroke:none;fill-rule:nonzero;fill:rgb(100%,100%,100%);fill-opacity:1;" d="M 458.847656 341.519531 L 437.347656 341.519531 L 437.347656 319.96875 L 458.847656 319.96875 Z M 372.796875 341.519531 L 351.296875 341.519531 L 351.296875 319.96875 L 372.796875 319.96875 Z M 501.863281 341.519531 L 501.863281 319.96875 L 480.363281 319.96875 L 480.363281 298.441406 L 458.847656 298.441406 L 458.847656 276.894531 L 437.347656 276.894531 L 437.347656 298.441406 L 372.796875 298.441406 L 372.796875 276.894531 L 351.296875 276.894531 L 351.296875 298.441406 L 329.78125 298.441406 L 329.78125 319.96875 L 308.28125 319.96875 L 308.28125 341.519531 L 286.761719 341.519531 L 286.761719 406.140625 L 308.28125 406.140625 L 308.28125 363.066406 L 329.78125 363.066406 L 329.78125 406.140625 L 351.296875 406.140625 L 351.296875 384.59375 L 458.847656 384.59375 L 458.847656 406.140625 L 480.363281 406.140625 L 480.363281 363.066406 L 501.863281 363.066406 L 501.863281 406.140625 L 523.382812 406.140625 L 523.382812 341.519531 L 501.863281 341.519531 "/>
<g clip-path="url(#clip4)" clip-rule="nonzero">
<path style=" stroke:none;fill-rule:nonzero;fill:rgb(100%,100%,100%);fill-opacity:1;" d="M 415.832031 406.140625 L 415.832031 427.671875 L 458.847656 427.671875 L 458.847656 406.140625 L 415.832031 406.140625 "/>
</g>
<path style=" stroke:none;fill-rule:nonzero;fill:rgb(100%,100%,100%);fill-opacity:1;" d="M 387 1341 L 387 1377 L 423 1377 L 423 1341 Z M 351 1305 L 351 1269 L 315 1269 L 315 1305 Z M 315 1449 L 351 1449 L 351 1413 L 315 1413 Z M 531 1341 L 531 1377 L 567 1377 L 567 1341 Z M 531 1341 L 531 1305 L 495 1305 L 495 1341 Z M 495 1413 L 531 1413 L 531 1377 L 495 1377 Z M 459 1449 L 495 1449 L 495 1413 L 459 1413 Z M 351 1377 L 351 1413 L 387 1413 L 387 1377 Z M 423 1485 L 459 1485 L 459 1449 L 423 1449 Z M 495 1305 L 495 1269 L 459 1269 L 459 1305 Z M 459 1233 L 423 1233 L 423 1269 L 459 1269 Z M 387 1341 L 387 1305 L 351 1305 L 351 1341 Z M 243 1521 L 279 1521 L 279 1485 L 243 1485 Z M 279 1485 L 315 1485 L 315 1449 L 279 1449 Z M 243 1197 L 243 1233 L 279 1233 L 279 1197 Z M 315 1233 L 279 1233 L 279 1269 L 315 1269 Z M 387 1197 L 387 1233 L 423 1233 L 423 1197 Z M 387 1521 L 423 1521 L 423 1485 L 387 1485 L 387 1521 "/>
</g>
</svg>
